<?xml version="1.0" encoding="UTF-8" standalone="no"?><!DOCTYPE svg PUBLIC "-//W3C//DTD SVG 1.1//EN" "http://www.w3.org/Graphics/SVG/1.1/DTD/svg11.dtd"><svg width="100%" height="100%" viewBox="0 0 430 210" version="1.1" xmlns="http://www.w3.org/2000/svg" xmlns:xlink="http://www.w3.org/1999/xlink" xml:space="preserve" xmlns:serif="http://www.serif.com/" style="fill-rule:evenodd;clip-rule:evenodd;"><g id="Layer-1" serif:id="Layer 1"><path d="M50.758,170.286c0.373,-1.195 0.559,-2.754 0.559,-4.675c0,-2.639 -0.395,-4.63 -1.185,-5.97c-0.789,-1.339 -1.859,-2.009 -3.211,-2.009c-1.879,0 -3.166,1.117 -3.862,3.353c-0.365,1.188 -0.547,2.73 -0.547,4.626c0,1.93 0.186,3.487 0.559,4.675c0.687,2.203 1.971,3.306 3.85,3.306c1.861,0 3.141,-1.103 3.837,-3.306m2.422,-11.076c1.708,1.656 2.562,3.791 2.562,6.401c0,2.612 -0.854,4.745 -2.562,6.403c-1.668,1.616 -3.752,2.424 -6.253,2.424c-2.656,0 -4.821,-0.884 -6.497,-2.654c-1.562,-1.666 -2.343,-3.678 -2.343,-6.039c0,-2.604 0.817,-4.74 2.452,-6.414c1.652,-1.698 3.781,-2.547 6.388,-2.547c2.508,0 4.593,0.809 6.253,2.426" style="fill:#13335a;fill-rule:nonzero;"/><path d="M65.639,171.149c0.169,-0.654 0.253,-1.596 0.253,-2.824c0,-1.422 -0.128,-2.556 -0.386,-3.401c-0.258,-0.843 -0.779,-1.267 -1.566,-1.267c-0.531,0 -1.005,0.234 -1.423,0.703c-0.418,0.47 -0.627,0.809 -0.627,1.018l0,6.039c0,0.242 0.199,0.555 0.597,0.939c0.397,0.385 0.845,0.576 1.344,0.576c0.891,0 1.495,-0.594 1.808,-1.783m-8.598,7.338c0.509,-0.055 0.855,-0.176 1.04,-0.361c0.186,-0.186 0.278,-0.537 0.278,-1.051l0,-12.571c0,-0.509 -0.091,-0.855 -0.272,-1.035c-0.181,-0.179 -0.53,-0.304 -1.046,-0.377l0,-0.612l4.803,0l0,1.687c0.337,-0.571 0.667,-0.991 0.989,-1.26c0.579,-0.473 1.319,-0.709 2.219,-0.709c1.295,0 2.371,0.488 3.228,1.467c0.856,0.978 1.285,2.437 1.285,4.377c0,1.802 -0.462,3.295 -1.384,4.48c-0.923,1.184 -2.044,1.775 -3.366,1.775c-0.676,0 -1.317,-0.195 -1.921,-0.586c-0.323,-0.208 -0.658,-0.503 -1.004,-0.888l0,2.119c0.009,1.126 0.017,1.759 0.025,1.898c0.056,0.645 0.221,1.086 0.497,1.325c0.276,0.238 0.738,0.377 1.386,0.417l0,0.518l-6.757,0l0,-0.613Z" style="fill:#13335a;fill-rule:nonzero;"/><path d="M77.688,166.953c-0.017,-1.468 -0.132,-2.495 -0.346,-3.079c-0.213,-0.584 -0.64,-0.875 -1.281,-0.875c-0.658,0 -1.107,0.336 -1.35,1.01c-0.243,0.673 -0.38,1.654 -0.413,2.944l3.39,0Zm-5.346,-3.17c1.018,-1.056 2.246,-1.585 3.683,-1.585c0.82,0 1.592,0.215 2.314,0.645c0.723,0.429 1.279,1.024 1.668,1.785c0.292,0.575 0.495,1.32 0.609,2.236c0.056,0.429 0.085,0.757 0.085,0.984l-6.356,0c0.056,1.001 0.218,1.867 0.482,2.598c0.482,1.375 1.329,2.063 2.543,2.063c0.578,0 1.124,-0.183 1.639,-0.549c0.314,-0.219 0.703,-0.59 1.169,-1.111l0.571,0.354c-0.767,1.258 -1.655,2.132 -2.663,2.623c-0.653,0.314 -1.403,0.472 -2.251,0.472c-1.217,0 -2.359,-0.483 -3.424,-1.446c-1.065,-0.963 -1.597,-2.503 -1.597,-4.617c0,-1.911 0.509,-3.394 1.528,-4.452" style="fill:#13335a;fill-rule:nonzero;"/><path d="M81.607,173.356c0.452,-0.057 0.784,-0.18 0.998,-0.371c0.213,-0.19 0.32,-0.568 0.32,-1.136l0,-7.345c0,-0.494 -0.087,-0.837 -0.26,-1.029c-0.174,-0.191 -0.526,-0.318 -1.058,-0.383l0,-0.612l4.802,0l0,1.813c0.392,-0.605 0.89,-1.105 1.494,-1.501c0.604,-0.395 1.274,-0.594 2.01,-0.594c1.055,0 1.873,0.275 2.453,0.826c0.579,0.551 0.87,1.519 0.87,2.904l0,6.016c0,0.56 0.094,0.922 0.282,1.083c0.188,0.163 0.503,0.272 0.942,0.329l0,0.611l-5.877,0l0,-0.611c0.432,-0.088 0.728,-0.209 0.885,-0.361c0.158,-0.151 0.237,-0.495 0.237,-1.033l0,-6.028c0,-0.566 -0.055,-0.992 -0.165,-1.275c-0.189,-0.511 -0.563,-0.766 -1.122,-0.766c-0.418,0 -0.802,0.155 -1.152,0.467c-0.351,0.312 -0.621,0.627 -0.809,0.941l0,6.661c0,0.538 0.078,0.882 0.235,1.033c0.158,0.152 0.454,0.273 0.887,0.361l0,0.611l-5.972,0l0,-0.611Z" style="fill:#13335a;fill-rule:nonzero;"/><path d="M104.333,159.444c1.667,-1.742 3.794,-2.613 6.385,-2.613c1.037,0 2.071,0.196 3.1,0.588c1.03,0.392 1.671,0.588 1.924,0.588c0.269,0 0.487,-0.096 0.65,-0.29c0.163,-0.195 0.297,-0.49 0.404,-0.886l0.612,0l0,5.838l-0.612,0c-0.601,-1.26 -1.215,-2.254 -1.841,-2.981c-1.171,-1.34 -2.497,-2.01 -3.976,-2.01c-1.61,0 -2.785,0.696 -3.525,2.084c-0.74,1.391 -1.11,3.346 -1.11,5.867c0,2.069 0.342,3.913 1.026,5.532c0.683,1.621 2.004,2.43 3.962,2.43c1.059,0 1.772,-0.219 2.136,-0.66c0.21,-0.247 0.315,-0.623 0.315,-1.128l0,-2.589c0,-0.782 -0.229,-1.294 -0.687,-1.538c-0.297,-0.152 -0.9,-0.236 -1.808,-0.252l0,-0.613l8.522,0l0,0.613c-0.856,0.033 -1.423,0.208 -1.701,0.524c-0.279,0.316 -0.418,0.911 -0.418,1.783l0,3.145c-0.553,0.347 -1.446,0.695 -2.68,1.043c-1.235,0.345 -2.615,0.519 -4.14,0.519c-2.769,0 -4.982,-0.871 -6.638,-2.612c-1.543,-1.628 -2.314,-3.669 -2.314,-6.124c0,-2.48 0.805,-4.565 2.414,-6.258" style="fill:#13335a;fill-rule:nonzero;"/><path d="M127.699,166.953c-0.017,-1.468 -0.132,-2.495 -0.346,-3.079c-0.213,-0.584 -0.641,-0.875 -1.281,-0.875c-0.658,0 -1.107,0.336 -1.35,1.01c-0.243,0.673 -0.38,1.654 -0.413,2.944l3.39,0Zm-5.346,-3.17c1.018,-1.056 2.246,-1.585 3.683,-1.585c0.82,0 1.592,0.215 2.314,0.645c0.722,0.429 1.279,1.024 1.668,1.785c0.292,0.575 0.494,1.32 0.609,2.236c0.056,0.429 0.085,0.757 0.085,0.984l-6.356,0c0.056,1.001 0.217,1.867 0.482,2.598c0.482,1.375 1.329,2.063 2.543,2.063c0.578,0 1.124,-0.183 1.639,-0.549c0.313,-0.219 0.702,-0.59 1.169,-1.111l0.57,0.354c-0.767,1.258 -1.654,2.132 -2.662,2.623c-0.653,0.314 -1.404,0.472 -2.251,0.472c-1.218,0 -2.359,-0.483 -3.424,-1.446c-1.065,-0.963 -1.597,-2.503 -1.597,-4.617c0,-1.911 0.509,-3.394 1.528,-4.452" style="fill:#13335a;fill-rule:nonzero;"/><path d="M135.695,171.889c0.28,1.073 0.835,1.608 1.667,1.608c0.791,0 1.31,-0.41 1.558,-1.233c0.247,-0.822 0.372,-2.161 0.372,-4.016c0,-1.846 -0.131,-3.182 -0.39,-4.008c-0.26,-0.829 -0.769,-1.241 -1.529,-1.241c-0.831,0 -1.386,0.536 -1.666,1.609c-0.184,0.718 -0.276,1.93 -0.276,3.64c0,1.734 0.088,2.949 0.264,3.641m-2.341,-7.96c1.063,-1.154 2.399,-1.73 4.008,-1.73c1.64,0 2.984,0.589 4.031,1.767c1.047,1.178 1.571,2.606 1.571,4.282c0,1.654 -0.518,3.076 -1.552,4.265c-1.035,1.191 -2.385,1.785 -4.05,1.785c-1.618,0 -2.956,-0.578 -4.015,-1.736c-1.059,-1.158 -1.588,-2.596 -1.588,-4.314c0,-1.725 0.531,-3.167 1.595,-4.319" style="fill:#13335a;fill-rule:nonzero;"/><path d="M144.136,170.202l0.683,0c0.239,1.205 0.688,2.056 1.345,2.552c0.657,0.495 1.33,0.743 2.019,0.743c0.632,0 1.097,-0.145 1.393,-0.436c0.296,-0.289 0.445,-0.671 0.445,-1.146c0,-0.449 -0.158,-0.834 -0.474,-1.152c-0.174,-0.172 -0.456,-0.356 -0.848,-0.551l-1.821,-0.903c-0.958,-0.48 -1.645,-1 -2.06,-1.56c-0.424,-0.563 -0.635,-1.225 -0.635,-1.988c0,-0.969 0.335,-1.804 1.005,-2.507c0.669,-0.704 1.606,-1.056 2.808,-1.056c0.524,0 1.081,0.086 1.67,0.259c0.59,0.173 0.957,0.259 1.102,0.259c0.202,0 0.345,-0.045 0.43,-0.136c0.084,-0.091 0.155,-0.218 0.212,-0.382l0.588,0l0,3.578l-0.588,0c-0.238,-0.838 -0.629,-1.509 -1.171,-2.016c-0.542,-0.507 -1.175,-0.761 -1.897,-0.761c-0.56,0 -0.976,0.155 -1.251,0.466c-0.275,0.31 -0.413,0.645 -0.413,1.005c0,0.294 0.119,0.589 0.356,0.882c0.229,0.304 0.67,0.614 1.323,0.93l1.354,0.656c0.838,0.407 1.451,0.799 1.838,1.18c0.644,0.648 0.967,1.448 0.967,2.397c0,0.923 -0.332,1.786 -0.994,2.584c-0.662,0.799 -1.656,1.199 -2.98,1.199c-0.33,0 -0.661,-0.035 -0.994,-0.102c-0.333,-0.068 -0.745,-0.185 -1.235,-0.353l-0.421,-0.144c-0.153,-0.056 -0.247,-0.087 -0.283,-0.095c-0.037,-0.007 -0.083,-0.012 -0.139,-0.012c-0.136,0 -0.255,0.053 -0.355,0.161c-0.101,0.107 -0.215,0.289 -0.343,0.545l-0.589,0l-0.047,-4.096Z" style="fill:#13335a;fill-rule:nonzero;"/><path d="M162.215,171.149c0.168,-0.654 0.253,-1.596 0.253,-2.824c0,-1.422 -0.129,-2.556 -0.386,-3.401c-0.258,-0.843 -0.779,-1.267 -1.566,-1.267c-0.531,0 -1.005,0.234 -1.423,0.703c-0.418,0.47 -0.627,0.809 -0.627,1.018l0,6.039c0,0.242 0.199,0.555 0.597,0.939c0.397,0.385 0.845,0.576 1.344,0.576c0.891,0 1.495,-0.594 1.808,-1.783m-8.598,7.338c0.508,-0.055 0.855,-0.176 1.04,-0.361c0.185,-0.186 0.278,-0.537 0.278,-1.051l0,-12.571c0,-0.509 -0.091,-0.855 -0.272,-1.035c-0.182,-0.179 -0.531,-0.304 -1.046,-0.377l0,-0.612l4.802,0l0,1.687c0.338,-0.571 0.667,-0.991 0.989,-1.26c0.579,-0.473 1.32,-0.709 2.22,-0.709c1.295,0 2.371,0.488 3.227,1.467c0.857,0.978 1.285,2.437 1.285,4.377c0,1.802 -0.461,3.295 -1.383,4.48c-0.923,1.184 -2.045,1.775 -3.366,1.775c-0.677,0 -1.318,-0.195 -1.922,-0.586c-0.322,-0.208 -0.657,-0.503 -1.003,-0.888l0,2.119c0.008,1.126 0.017,1.759 0.024,1.898c0.057,0.645 0.222,1.086 0.497,1.325c0.276,0.238 0.739,0.377 1.387,0.417l0,0.518l-6.757,0l0,-0.613Z" style="fill:#13335a;fill-rule:nonzero;"/><path d="M173.396,172.142c0.191,-0.146 0.417,-0.375 0.679,-0.686l0,-3.655c-0.652,0.163 -1.223,0.42 -1.715,0.771c-0.835,0.595 -1.251,1.353 -1.251,2.273c0,0.547 0.121,0.961 0.364,1.242c0.241,0.282 0.514,0.422 0.816,0.422c0.397,0 0.766,-0.122 1.107,-0.367m-4.343,-3.199c1.078,-0.659 2.767,-1.322 5.07,-1.989l0,-1.802c0,-0.735 -0.156,-1.276 -0.466,-1.627c-0.309,-0.35 -0.858,-0.526 -1.645,-0.526c-0.443,0 -0.807,0.082 -1.094,0.248c-0.287,0.165 -0.431,0.374 -0.431,0.624c0,0.095 0.017,0.176 0.049,0.241c0.032,0.065 0.081,0.134 0.146,0.206l0.146,0.168c0.113,0.138 0.203,0.289 0.272,0.455c0.068,0.165 0.103,0.34 0.103,0.525c0,0.468 -0.157,0.828 -0.47,1.082c-0.313,0.254 -0.677,0.381 -1.092,0.381c-0.48,0 -0.89,-0.141 -1.227,-0.422c-0.338,-0.281 -0.506,-0.687 -0.506,-1.219c0,-0.949 0.448,-1.701 1.347,-2.257c0.898,-0.555 2.003,-0.832 3.315,-0.832c1.408,0 2.586,0.271 3.534,0.813c0.938,0.551 1.408,1.564 1.408,3.036l0,6.024c0,0.178 0.047,0.33 0.141,0.456c0.094,0.126 0.198,0.188 0.313,0.188c0.098,0 0.185,-0.017 0.263,-0.054c0.078,-0.038 0.199,-0.137 0.362,-0.298l0.38,0.522c-0.488,0.569 -1.029,0.967 -1.624,1.194c-0.374,0.144 -0.769,0.218 -1.184,0.218c-0.741,0 -1.282,-0.217 -1.623,-0.648c-0.196,-0.244 -0.338,-0.608 -0.428,-1.09c-0.688,0.694 -1.465,1.184 -2.33,1.469c-0.527,0.179 -1.044,0.269 -1.553,0.269c-0.68,0 -1.316,-0.218 -1.906,-0.652c-0.591,-0.436 -0.886,-1.112 -0.886,-2.031c0,-1.123 0.538,-2.013 1.616,-2.672" style="fill:#13335a;fill-rule:nonzero;"/><path d="M179.625,163.564l0,-0.683c0.218,-0.202 0.488,-0.44 0.813,-0.713c0.427,-0.397 0.832,-0.804 1.211,-1.225c0.751,-0.823 1.435,-1.707 2.048,-2.652l0.636,0l0,4.19l2.401,0l0,1.083l-2.401,0l0,7.518c0,0.349 0.052,0.642 0.157,0.878c0.162,0.366 0.428,0.549 0.799,0.549c0.322,0 0.592,-0.113 0.81,-0.34c0.217,-0.226 0.435,-0.539 0.653,-0.939l0.594,0.291c-0.29,0.676 -0.637,1.228 -1.04,1.654c-0.71,0.748 -1.577,1.123 -2.602,1.123c-0.581,0 -1.089,-0.109 -1.524,-0.328c-0.84,-0.421 -1.268,-1.187 -1.284,-2.302l0,-8.104l-1.271,0Z" style="fill:#13335a;fill-rule:nonzero;"/><path d="M189.453,157.396c0.377,-0.377 0.834,-0.564 1.369,-0.564c0.528,0 0.981,0.187 1.36,0.564c0.376,0.377 0.566,0.832 0.566,1.365c0,0.535 -0.19,0.99 -0.566,1.367c-0.379,0.376 -0.832,0.564 -1.36,0.564c-0.535,0 -0.992,-0.188 -1.369,-0.564c-0.378,-0.377 -0.566,-0.832 -0.566,-1.367c0,-0.533 0.188,-0.988 0.566,-1.365m-1.602,15.961c0.424,-0.063 0.713,-0.168 0.872,-0.316c0.234,-0.221 0.352,-0.618 0.352,-1.191l0,-7.345c0,-0.494 -0.083,-0.832 -0.247,-1.011c-0.165,-0.18 -0.49,-0.313 -0.977,-0.401l0,-0.612l4.754,0l0,9.464c0,0.544 0.083,0.892 0.248,1.047c0.166,0.154 0.475,0.275 0.93,0.365l0,0.611l-5.932,0l0,-0.611Z" style="fill:#13335a;fill-rule:nonzero;"/><path d="M200.711,172.142c0.191,-0.146 0.418,-0.375 0.68,-0.686l0,-3.655c-0.653,0.163 -1.224,0.42 -1.716,0.771c-0.834,0.595 -1.251,1.353 -1.251,2.273c0,0.547 0.121,0.961 0.363,1.242c0.242,0.282 0.515,0.422 0.817,0.422c0.397,0 0.766,-0.122 1.107,-0.367m-4.343,-3.199c1.077,-0.659 2.768,-1.322 5.07,-1.989l0,-1.802c0,-0.735 -0.156,-1.276 -0.465,-1.627c-0.31,-0.35 -0.859,-0.526 -1.646,-0.526c-0.442,0 -0.807,0.082 -1.095,0.248c-0.286,0.165 -0.429,0.374 -0.429,0.624c0,0.095 0.015,0.176 0.049,0.241c0.032,0.065 0.08,0.134 0.145,0.206l0.146,0.168c0.113,0.138 0.203,0.289 0.273,0.455c0.068,0.165 0.103,0.34 0.103,0.525c0,0.468 -0.158,0.828 -0.47,1.082c-0.315,0.254 -0.678,0.381 -1.093,0.381c-0.48,0 -0.89,-0.141 -1.227,-0.422c-0.338,-0.281 -0.506,-0.687 -0.506,-1.219c0,-0.949 0.449,-1.701 1.347,-2.257c0.899,-0.555 2.004,-0.832 3.315,-0.832c1.408,0 2.586,0.271 3.533,0.813c0.939,0.551 1.409,1.564 1.409,3.036l0,6.024c0,0.178 0.046,0.33 0.141,0.456c0.095,0.126 0.198,0.188 0.313,0.188c0.098,0 0.186,-0.017 0.264,-0.054c0.078,-0.038 0.198,-0.137 0.361,-0.298l0.381,0.522c-0.488,0.569 -1.03,0.967 -1.625,1.194c-0.374,0.144 -0.769,0.218 -1.183,0.218c-0.742,0 -1.284,-0.217 -1.624,-0.648c-0.197,-0.244 -0.337,-0.608 -0.427,-1.09c-0.689,0.694 -1.465,1.184 -2.331,1.469c-0.527,0.179 -1.044,0.269 -1.553,0.269c-0.68,0 -1.315,-0.218 -1.906,-0.652c-0.591,-0.436 -0.886,-1.112 -0.886,-2.031c0,-1.123 0.539,-2.013 1.616,-2.672" style="fill:#13335a;fill-rule:nonzero;"/><path d="M206.847,173.356c0.444,-0.109 0.761,-0.251 0.946,-0.425c0.186,-0.173 0.278,-0.534 0.278,-1.082l0,-12.665c0,-0.515 -0.086,-0.85 -0.26,-1.01c-0.174,-0.158 -0.494,-0.292 -0.964,-0.402l0,-0.611l4.757,0l0,14.688c0,0.544 0.09,0.9 0.269,1.068c0.18,0.167 0.498,0.314 0.956,0.439l0,0.611l-5.982,0l0,-0.611Z" style="fill:#13335a;fill-rule:nonzero;"/><path d="M232.212,157.419c1.066,0.393 1.661,0.589 1.783,0.589c0.319,0 0.572,-0.126 0.764,-0.38c0.191,-0.252 0.311,-0.518 0.36,-0.797l0.613,0l0,5.838l-0.613,0c-0.599,-1.26 -1.211,-2.254 -1.835,-2.98c-1.167,-1.34 -2.488,-2.01 -3.963,-2.01c-1.669,0 -2.854,0.717 -3.555,2.15c-0.701,1.435 -1.051,3.36 -1.051,5.776c0,1.777 0.206,3.24 0.618,4.386c0.769,2.151 2.196,3.224 4.283,3.224c1.278,0 2.467,-0.355 3.567,-1.067c0.631,-0.412 1.375,-1.07 2.232,-1.975l0.74,0.594c-0.972,1.09 -1.826,1.879 -2.563,2.367c-1.313,0.869 -2.77,1.305 -4.374,1.305c-2.454,0 -4.512,-0.727 -6.171,-2.184c-1.839,-1.609 -2.758,-3.778 -2.758,-6.504c0,-2.703 0.884,-4.891 2.652,-6.566c1.661,-1.569 3.696,-2.354 6.107,-2.354c1.042,0 2.097,0.196 3.164,0.588" style="fill:#13335a;fill-rule:nonzero;"/><path d="M241.748,171.889c0.28,1.073 0.835,1.608 1.666,1.608c0.792,0 1.312,-0.41 1.56,-1.233c0.247,-0.822 0.371,-2.161 0.371,-4.016c0,-1.846 -0.13,-3.182 -0.39,-4.008c-0.26,-0.829 -0.769,-1.241 -1.528,-1.241c-0.832,0 -1.387,0.536 -1.667,1.609c-0.184,0.718 -0.276,1.93 -0.276,3.64c0,1.734 0.087,2.949 0.264,3.641m-2.341,-7.96c1.063,-1.154 2.399,-1.73 4.007,-1.73c1.641,0 2.985,0.589 4.032,1.767c1.047,1.178 1.571,2.606 1.571,4.282c0,1.654 -0.518,3.076 -1.552,4.265c-1.035,1.191 -2.385,1.785 -4.051,1.785c-1.616,0 -2.954,-0.578 -4.014,-1.736c-1.059,-1.158 -1.589,-2.596 -1.589,-4.314c0,-1.725 0.532,-3.167 1.596,-4.319" style="fill:#13335a;fill-rule:nonzero;"/><path d="M250.001,173.356c0.451,-0.057 0.784,-0.18 0.997,-0.371c0.214,-0.19 0.321,-0.568 0.321,-1.136l0,-7.345c0,-0.494 -0.087,-0.837 -0.26,-1.029c-0.174,-0.191 -0.527,-0.318 -1.058,-0.383l0,-0.612l4.802,0l0,1.813c0.391,-0.605 0.889,-1.105 1.493,-1.501c0.604,-0.395 1.274,-0.594 2.01,-0.594c1.055,0 1.874,0.275 2.454,0.826c0.579,0.551 0.87,1.519 0.87,2.904l0,6.016c0,0.56 0.093,0.922 0.281,1.083c0.189,0.163 0.503,0.272 0.943,0.329l0,0.611l-5.878,0l0,-0.611c0.432,-0.088 0.728,-0.209 0.885,-0.361c0.159,-0.151 0.238,-0.495 0.238,-1.033l0,-6.028c0,-0.566 -0.056,-0.992 -0.166,-1.275c-0.189,-0.511 -0.563,-0.766 -1.121,-0.766c-0.418,0 -0.802,0.155 -1.153,0.467c-0.35,0.312 -0.621,0.627 -0.809,0.941l0,6.661c0,0.538 0.079,0.882 0.236,1.033c0.157,0.152 0.453,0.273 0.887,0.361l0,0.611l-5.972,0l0,-0.611Z" style="fill:#13335a;fill-rule:nonzero;"/><path d="M263.914,170.202l0.683,0c0.24,1.205 0.689,2.056 1.345,2.552c0.658,0.495 1.33,0.743 2.019,0.743c0.633,0 1.097,-0.145 1.393,-0.436c0.297,-0.289 0.446,-0.671 0.446,-1.146c0,-0.449 -0.158,-0.834 -0.475,-1.152c-0.174,-0.172 -0.456,-0.356 -0.848,-0.551l-1.82,-0.903c-0.959,-0.48 -1.645,-1 -2.06,-1.56c-0.424,-0.563 -0.635,-1.225 -0.635,-1.988c0,-0.969 0.334,-1.804 1.005,-2.507c0.669,-0.704 1.605,-1.056 2.808,-1.056c0.524,0 1.08,0.086 1.67,0.259c0.589,0.173 0.956,0.259 1.102,0.259c0.202,0 0.345,-0.045 0.43,-0.136c0.084,-0.091 0.155,-0.218 0.211,-0.382l0.589,0l0,3.578l-0.589,0c-0.238,-0.838 -0.628,-1.509 -1.17,-2.016c-0.542,-0.507 -1.175,-0.761 -1.898,-0.761c-0.559,0 -0.976,0.155 -1.251,0.466c-0.274,0.31 -0.412,0.645 -0.412,1.005c0,0.294 0.118,0.589 0.355,0.882c0.23,0.304 0.67,0.614 1.324,0.93l1.354,0.656c0.838,0.407 1.45,0.799 1.837,1.18c0.645,0.648 0.968,1.448 0.968,2.397c0,0.923 -0.332,1.786 -0.994,2.584c-0.662,0.799 -1.657,1.199 -2.981,1.199c-0.33,0 -0.661,-0.035 -0.994,-0.102c-0.333,-0.068 -0.744,-0.185 -1.234,-0.353l-0.421,-0.144c-0.153,-0.056 -0.248,-0.087 -0.283,-0.095c-0.037,-0.007 -0.083,-0.012 -0.139,-0.012c-0.137,0 -0.256,0.053 -0.356,0.161c-0.1,0.107 -0.215,0.289 -0.343,0.545l-0.588,0l-0.048,-4.096Z" style="fill:#13335a;fill-rule:nonzero;"/><path d="M277.378,171.889c0.279,1.073 0.835,1.608 1.666,1.608c0.792,0 1.312,-0.41 1.56,-1.233c0.247,-0.822 0.371,-2.161 0.371,-4.016c0,-1.846 -0.13,-3.182 -0.39,-4.008c-0.26,-0.829 -0.769,-1.241 -1.529,-1.241c-0.831,0 -1.387,0.536 -1.666,1.609c-0.184,0.718 -0.276,1.93 -0.276,3.64c0,1.734 0.087,2.949 0.264,3.641m-2.342,-7.96c1.064,-1.154 2.4,-1.73 4.008,-1.73c1.641,0 2.984,0.589 4.032,1.767c1.047,1.178 1.572,2.606 1.572,4.282c0,1.654 -0.519,3.076 -1.553,4.265c-1.035,1.191 -2.385,1.785 -4.051,1.785c-1.616,0 -2.955,-0.578 -4.014,-1.736c-1.059,-1.158 -1.589,-2.596 -1.589,-4.314c0,-1.725 0.532,-3.167 1.595,-4.319" style="fill:#13335a;fill-rule:nonzero;"/><path d="M285.631,173.356c0.475,-0.057 0.806,-0.17 0.991,-0.338c0.186,-0.17 0.286,-0.496 0.303,-0.98l0.023,-0.733l0,-6.801c0,-0.509 -0.088,-0.857 -0.265,-1.041c-0.178,-0.183 -0.529,-0.306 -1.052,-0.371l0,-0.612l4.802,0l0,1.964c0.517,-0.688 1.032,-1.234 1.543,-1.639c0.509,-0.405 1.099,-0.607 1.768,-0.607c0.502,0 0.954,0.167 1.358,0.501c0.402,0.334 0.604,0.821 0.604,1.464c0,0.496 -0.143,0.904 -0.43,1.225c-0.288,0.322 -0.662,0.482 -1.123,0.482c-0.525,0 -0.979,-0.259 -1.363,-0.777c-0.385,-0.518 -0.653,-0.776 -0.806,-0.776c-0.332,0 -0.665,0.215 -1,0.643c-0.336,0.428 -0.504,1.021 -0.504,1.781l0,4.684c0,0.816 0.116,1.326 0.349,1.529c0.233,0.205 0.698,0.339 1.393,0.402l0,0.611l-6.591,0l0,-0.611Z" style="fill:#13335a;fill-rule:nonzero;"/><path d="M296.612,163.564l0,-0.683c0.218,-0.202 0.488,-0.44 0.812,-0.713c0.428,-0.397 0.832,-0.804 1.212,-1.225c0.751,-0.823 1.434,-1.707 2.048,-2.652l0.636,0l0,4.19l2.401,0l0,1.083l-2.401,0l0,7.518c0,0.349 0.052,0.642 0.157,0.878c0.161,0.366 0.428,0.549 0.798,0.549c0.322,0 0.593,-0.113 0.811,-0.34c0.217,-0.226 0.435,-0.539 0.653,-0.939l0.594,0.291c-0.29,0.676 -0.638,1.228 -1.041,1.654c-0.709,0.748 -1.577,1.123 -2.601,1.123c-0.581,0 -1.09,-0.109 -1.525,-0.328c-0.839,-0.421 -1.267,-1.187 -1.283,-2.302l0,-8.104l-1.271,0Z" style="fill:#13335a;fill-rule:nonzero;"/><path d="M306.44,157.396c0.377,-0.377 0.834,-0.564 1.37,-0.564c0.527,0 0.98,0.187 1.358,0.564c0.377,0.377 0.566,0.832 0.566,1.365c0,0.535 -0.189,0.99 -0.566,1.367c-0.378,0.376 -0.831,0.564 -1.358,0.564c-0.536,0 -0.993,-0.188 -1.37,-0.564c-0.378,-0.377 -0.566,-0.832 -0.566,-1.367c0,-0.533 0.188,-0.988 0.566,-1.365m-1.603,15.961c0.424,-0.063 0.714,-0.168 0.872,-0.316c0.235,-0.221 0.353,-0.618 0.353,-1.191l0,-7.345c0,-0.494 -0.083,-0.832 -0.247,-1.011c-0.165,-0.18 -0.491,-0.313 -0.978,-0.401l0,-0.612l4.756,0l0,9.464c0,0.544 0.082,0.892 0.248,1.047c0.164,0.154 0.474,0.275 0.929,0.365l0,0.611l-5.933,0l0,-0.611Z" style="fill:#13335a;fill-rule:nonzero;"/><path d="M316.306,162.48l0,8.405c0,0.5 0.059,0.867 0.178,1.101c0.206,0.411 0.612,0.616 1.22,0.616c0.387,0 0.767,-0.119 1.139,-0.359c0.213,-0.131 0.482,-0.352 0.806,-0.661l0,-7.078c0,-0.509 -0.104,-0.867 -0.31,-1.07c-0.206,-0.203 -0.621,-0.318 -1.244,-0.342l0,-0.612l4.943,0l0,8.945c0,0.507 0.096,0.857 0.288,1.051c0.191,0.194 0.566,0.316 1.126,0.362l0,0.612c-1.515,0.148 -2.468,0.257 -2.863,0.326c-0.393,0.068 -1.025,0.242 -1.893,0.521l0,-1.648c-0.595,0.514 -1.088,0.875 -1.48,1.088c-0.684,0.373 -1.398,0.56 -2.139,0.56c-0.808,0 -1.56,-0.255 -2.256,-0.767c-0.698,-0.512 -1.046,-1.42 -1.046,-2.729l0,-6.297c0,-0.514 -0.084,-0.851 -0.252,-1.009c-0.168,-0.159 -0.492,-0.292 -0.972,-0.403l0,-0.612l4.755,0Z" style="fill:#13335a;fill-rule:nonzero;"/><path d="M325.276,173.356c0.442,-0.063 0.748,-0.162 0.914,-0.3c0.27,-0.217 0.404,-0.619 0.404,-1.207l0,-7.345c0,-0.509 -0.091,-0.857 -0.273,-1.041c-0.183,-0.183 -0.531,-0.306 -1.045,-0.371l0,-0.612l4.802,0l0,1.757c0.414,-0.533 0.815,-0.945 1.205,-1.24c0.722,-0.534 1.526,-0.799 2.41,-0.799c0.998,0 1.773,0.23 2.325,0.69c0.308,0.263 0.6,0.693 0.876,1.286l0.174,0c0.47,-0.562 0.92,-0.988 1.351,-1.273c0.681,-0.469 1.423,-0.703 2.226,-0.703c0.876,0 1.649,0.279 2.318,0.838c0.669,0.559 1.003,1.443 1.003,2.649l0,6.259c0,0.576 0.09,0.943 0.272,1.101c0.18,0.159 0.498,0.262 0.953,0.311l0,0.611l-5.876,0l0,-0.611c0.453,-0.064 0.77,-0.176 0.948,-0.334c0.178,-0.156 0.267,-0.514 0.267,-1.071l0,-6.02c0,-0.647 -0.096,-1.148 -0.285,-1.505c-0.191,-0.355 -0.553,-0.533 -1.087,-0.533c-0.43,0 -0.88,0.195 -1.355,0.588c-0.473,0.393 -0.71,0.666 -0.71,0.82l0,6.65c0,0.542 0.081,0.888 0.243,1.042c0.162,0.153 0.464,0.275 0.911,0.363l0,0.611l-5.895,0l0,-0.611c0.436,-0.057 0.746,-0.164 0.931,-0.32c0.185,-0.159 0.279,-0.52 0.279,-1.085l0,-6.02c0,-0.63 -0.089,-1.128 -0.266,-1.492c-0.178,-0.364 -0.545,-0.546 -1.102,-0.546c-0.508,0 -0.98,0.199 -1.416,0.6c-0.436,0.399 -0.652,0.652 -0.652,0.758l0,6.7c0,0.542 0.076,0.888 0.228,1.042c0.153,0.153 0.457,0.275 0.908,0.363l0,0.611l-5.986,0l0,-0.611Z" style="fill:#13335a;fill-rule:nonzero;"/><path d="M346.572,177.919c0.751,-0.521 1.316,-0.979 1.696,-1.371c0.67,-0.678 1.006,-1.318 1.006,-1.922c0,-0.172 -0.041,-0.311 -0.122,-0.416c-0.089,-0.1 -0.214,-0.147 -0.375,-0.147c-0.081,0 -0.183,0.014 -0.303,0.046c-0.121,0.031 -0.206,0.048 -0.255,0.048c-0.492,0 -0.918,-0.176 -1.278,-0.525c-0.359,-0.35 -0.539,-0.82 -0.539,-1.414c0,-0.625 0.188,-1.134 0.563,-1.525c0.375,-0.389 0.866,-0.585 1.471,-0.585c0.743,0 1.352,0.262 1.824,0.785c0.472,0.522 0.708,1.222 0.708,2.098c0,1.338 -0.533,2.555 -1.598,3.651c-0.582,0.584 -1.417,1.191 -2.508,1.824l-0.29,-0.547Z" style="fill:#13335a;fill-rule:nonzero;"/><path d="M358.115,173.356c0.7,-0.016 1.204,-0.104 1.51,-0.262c0.5,-0.264 0.75,-0.773 0.75,-1.527l0,-12.006c0,-0.748 -0.238,-1.25 -0.713,-1.505c-0.291,-0.156 -0.807,-0.251 -1.547,-0.284l0,-0.611l8.71,0l0,0.611c-0.785,0.033 -1.324,0.123 -1.619,0.271c-0.49,0.256 -0.736,0.762 -0.736,1.518l0,12.006c0,0.712 0.197,1.188 0.589,1.428c0.392,0.241 0.981,0.361 1.766,0.361l0,0.611l-8.71,0l0,-0.611Z" style="fill:#13335a;fill-rule:nonzero;"/><path d="M367.69,173.356c0.451,-0.057 0.784,-0.18 0.997,-0.371c0.214,-0.19 0.321,-0.568 0.321,-1.136l0,-7.345c0,-0.494 -0.087,-0.837 -0.26,-1.029c-0.174,-0.191 -0.526,-0.318 -1.058,-0.383l0,-0.612l4.802,0l0,1.813c0.391,-0.605 0.889,-1.105 1.494,-1.501c0.603,-0.395 1.273,-0.594 2.01,-0.594c1.054,0 1.873,0.275 2.453,0.826c0.579,0.551 0.87,1.519 0.87,2.904l0,6.016c0,0.56 0.094,0.922 0.281,1.083c0.189,0.163 0.503,0.272 0.943,0.329l0,0.611l-5.877,0l0,-0.611c0.431,-0.088 0.727,-0.209 0.885,-0.361c0.158,-0.151 0.237,-0.495 0.237,-1.033l0,-6.028c0,-0.566 -0.055,-0.992 -0.165,-1.275c-0.19,-0.511 -0.564,-0.766 -1.122,-0.766c-0.418,0 -0.802,0.155 -1.153,0.467c-0.35,0.312 -0.621,0.627 -0.808,0.941l0,6.661c0,0.538 0.078,0.882 0.235,1.033c0.158,0.152 0.453,0.273 0.887,0.361l0,0.611l-5.972,0l0,-0.611Z" style="fill:#13335a;fill-rule:nonzero;"/><path d="M390.114,162.964c0.76,0.512 1.141,1.169 1.141,1.972c0,0.43 -0.154,0.803 -0.459,1.12c-0.305,0.316 -0.694,0.474 -1.165,0.474c-0.314,0 -0.588,-0.072 -0.821,-0.218c-0.442,-0.258 -0.663,-0.725 -0.663,-1.403c0,-0.072 0.004,-0.179 0.012,-0.32c0.008,-0.141 0.013,-0.292 0.013,-0.453c0,-0.436 -0.1,-0.734 -0.298,-0.895c-0.207,-0.162 -0.442,-0.242 -0.703,-0.242c-0.755,0 -1.29,0.42 -1.608,1.26c-0.318,0.842 -0.476,1.805 -0.476,2.891c0,1.544 0.303,2.839 0.912,3.884c0.607,1.047 1.427,1.569 2.46,1.569c0.647,0 1.2,-0.145 1.656,-0.434c0.271,-0.168 0.607,-0.477 1.008,-0.928l0.461,0.422c-0.803,1.12 -1.743,1.89 -2.821,2.309c-0.57,0.217 -1.176,0.326 -1.819,0.326c-1.584,0 -2.878,-0.568 -3.882,-1.706c-1.005,-1.138 -1.507,-2.524 -1.507,-4.162c0,-1.726 0.534,-3.196 1.599,-4.41c1.064,-1.214 2.486,-1.822 4.264,-1.822c1.038,0 1.936,0.256 2.696,0.766" style="fill:#13335a;fill-rule:nonzero;"/><path d="M393.479,170.72c0.407,-0.408 0.902,-0.611 1.483,-0.611c0.582,0 1.077,0.203 1.484,0.611c0.407,0.408 0.612,0.902 0.612,1.482c0,0.582 -0.205,1.077 -0.612,1.485c-0.407,0.406 -0.902,0.611 -1.484,0.611c-0.581,0 -1.076,-0.205 -1.483,-0.611c-0.407,-0.408 -0.611,-0.903 -0.611,-1.485c0,-0.58 0.204,-1.074 0.611,-1.482" style="fill:#13335a;fill-rule:nonzero;"/><path id="Border" d="M423.397,191.314c0,6.496 -5.275,11.762 -11.783,11.762l-393.347,0c-6.508,0 -11.785,-5.266 -11.785,-11.762l0,-173.071c0,-6.496 5.277,-11.761 11.785,-11.761l393.347,0c6.508,0 11.783,5.265 11.783,11.761l0,173.071Z" style="fill:none;fill-rule:nonzero;stroke:#13335a;stroke-width:3.14px;"/><g transform="matrix(1,0,0,1,-10.3896,-8.52168)"><text x="377px" y="70.367px" style="font-family:'TimesNewRomanPS-BoldMT', 'Times New Roman', serif;font-weight:700;font-size:36px;fill:#00335b;">®</text><g transform="matrix(0.95415,0,0,1,1.9945,0)"><text x="43.501px" y="151.212px" style="font-family:'TimesNewRomanPS-BoldMT', 'Times New Roman', serif;font-weight:700;font-size:154.168px;fill:#00335b;">OGC</text></g></g></g></svg>